<?xml version="1.0" standalone="no"?>
<!DOCTYPE svg PUBLIC "-//W3C//DTD SVG 20010904//EN"
 "http://www.w3.org/TR/2001/REC-SVG-20010904/DTD/svg10.dtd">
<svg version="1.0" xmlns="http://www.w3.org/2000/svg"
 width="512.000000pt" height="512.000000pt" viewBox="0 0 512.000000 512.000000"
 preserveAspectRatio="xMidYMid meet">
<metadata>
Created by potrace 1.14, written by Peter Selinger 2001-2017
</metadata>
<g transform="translate(0.000000,512.000000) scale(0.100000,-0.100000)"
fill="#000000" stroke="none">
<path d="M633 4565 c-115 -26 -222 -133 -295 -293 -31 -69 -109 -319 -154
-492 -55 -215 -88 -364 -108 -485 -47 -282 -54 -371 -51 -640 3 -259 16 -370
71 -592 106 -431 327 -774 681 -1057 434 -347 1206 -634 1858 -692 39 -3 88
-7 110 -10 51 -4 356 -4 415 1 206 17 327 35 475 70 646 155 1112 489 1353
970 89 178 105 301 106 825 1 278 0 299 -21 365 -12 39 -31 80 -43 92 -11 12
-20 25 -20 29 0 13 -56 56 -110 83 -30 16 -107 51 -170 79 -63 27 -140 61
-170 75 -30 14 -197 88 -371 165 -174 77 -336 149 -360 160 -24 11 -107 48
-184 82 -77 34 -159 70 -182 81 -24 10 -62 27 -85 38 -112 49 -220 97 -286
127 -41 19 -75 34 -77 34 -3 0 -28 11 -57 24 -40 18 -1000 445 -1276 567 -23
11 -63 29 -90 40 -26 12 -103 46 -172 76 -69 31 -150 67 -180 80 -30 14 -146
65 -256 113 -217 95 -260 106 -351 85z"/>
</g>
</svg>
